<svg width="330" height="121" viewBox="0 0 330 121" fill="none" xmlns="http://www.w3.org/2000/svg">
<path d="M45.5833 0.0382292C48.3233 0.137992 52.3586 0.686684 54.5505 1.28526C56.7425 1.83395 60.8774 3.48003 63.7669 4.8767C68.3003 7.12135 69.5956 8.01921 73.5312 11.9598C76.0221 14.4539 78.6624 17.6463 79.4097 18.9931C80.1569 20.3897 81.3526 22.8339 82.05 24.48C82.7475 26.1261 83.7937 29.4681 85.4376 36.3018L89.9213 37.4491C92.3623 38.0477 95.6503 39.0453 97.1449 39.6439C98.6394 40.2424 101.33 41.5892 103.123 42.6367C104.916 43.7341 107.756 45.9289 109.45 47.6248C111.194 49.3208 113.485 52.0643 114.581 53.8101C115.727 55.5061 117.271 58.4989 118.068 60.3944C118.816 62.2899 119.862 65.7816 120.36 68.126C121.008 71.3683 121.107 73.8124 120.908 78.3516C120.709 82.9407 120.31 85.335 119.314 88.5773C118.567 90.9217 117.371 93.9644 116.723 95.3112C116.026 96.7079 114.531 99.1521 113.336 100.798C112.19 102.444 109.799 105.138 108.055 106.734C106.311 108.33 103.322 110.675 101.379 111.922C99.4365 113.169 95.6503 115.164 92.9103 116.311C90.1703 117.508 85.6867 119.005 82.9467 119.703C80.2068 120.401 77.5166 121 76.9686 121C76.2213 121 77.4668 120.463 79.7086 118.456C81.7511 117.01 85.1387 114.166 87.1813 112.071C89.2736 109.976 91.9638 106.834 93.1594 105.038C94.355 103.242 96.298 99.7506 97.4438 97.3065C98.5896 94.8623 99.9845 90.9217 100.582 88.5773C101.28 85.7839 101.628 82.791 101.628 79.8481C101.628 77.4039 101.33 74.2115 100.981 72.8647C100.582 71.5179 99.7852 69.2733 99.0878 67.9265C98.4401 66.5797 96.7766 64.3966 95.5311 63.0996C94.4156 62.0638 92.2627 60.4443 91.2966 59.8574C90.3305 59.2704 87.8787 58.2994 86.3344 57.8505C84.242 57.2519 80.9042 56.9526 65.0123 56.7531L64.9127 47.8244C64.8628 41.3398 64.6138 38.1474 64.0658 35.9526C63.6174 34.3066 62.8203 32.0619 62.2723 30.9645C61.7741 29.8672 60.2796 27.8719 58.9345 26.575C57.6393 25.2781 55.5967 23.7318 54.4011 23.233C53.2553 22.6843 51.3622 22.0358 50.1666 21.7365C49.0208 21.4871 46.9284 21.2377 45.5833 21.2377C44.1884 21.2377 41.7473 21.5869 40.1033 21.9859C38.4594 22.4349 35.9186 23.4824 34.4241 24.3802C32.9794 25.2781 30.6878 27.2235 29.3427 28.7199C27.9976 30.2163 26.1045 33.0595 25.2078 34.955C24.2613 36.8505 23.1653 39.6937 22.7169 41.1902C22.2685 42.6866 21.5711 46.0785 21.1725 48.6723C20.774 51.2662 20.4253 55.4562 20.4253 57.9004C20.4751 60.3445 20.6744 64.0856 20.9235 66.1307C21.2224 68.1759 21.5711 70.6699 21.9696 73.3635L20.9733 72.1165C20.4253 71.4181 18.7315 68.525 17.2369 65.6319C15.7424 62.7388 13.6999 58.05 12.7533 55.1569C11.8068 52.2638 10.661 47.7745 10.2126 45.1807C9.81406 42.5868 9.46533 38.746 9.46533 36.7009C9.46533 34.6557 9.76424 31.0643 10.2126 28.7199C10.6111 26.3755 11.5079 23.0334 12.2551 21.2377C12.9526 19.442 14.2977 16.7484 15.1944 15.252C16.0911 13.7555 18.5625 10.7244 20.226 9.26624C22.1191 7.47052 24.9089 5.27575 26.4034 4.42777C27.898 3.57979 30.5383 2.38264 32.2321 1.83395C33.9757 1.23538 36.5663 0.586922 37.9612 0.287635C39.4059 0.0382292 42.8433 -0.061533 45.5833 0.0382292Z" fill="url(#paint0_linear_210_21)"/>
<path d="M2.14217 38.4468L3.28799 45.1807C3.8858 48.8719 5.13125 54.0596 6.02797 56.6534C6.87487 59.2472 8.36941 63.0881 9.31595 65.1332C10.2625 67.1783 11.8567 70.2211 12.853 71.8671C13.7996 73.5132 15.8919 76.556 17.4861 78.6011C19.0304 80.6462 22.0693 84.0381 24.2115 86.0833C26.4035 88.1783 29.5918 90.8719 31.3853 92.069C33.1787 93.2662 36.5165 95.1616 38.858 96.2091C41.1994 97.3065 45.2347 98.7531 47.8252 99.4015C50.4157 100.05 55.1484 100.798 58.287 101.097C61.4255 101.347 65.8095 101.447 68.0014 101.247C70.1934 101.097 74.0294 100.499 76.4705 100C78.9116 99.5013 82.1996 98.5536 83.6941 97.955C85.1886 97.3564 87.4802 96.2091 88.8253 95.4609C90.1206 94.7127 91.2664 94.0643 91.4159 94.0643C91.5653 94.0643 91.0671 95.2614 90.3697 96.708C89.6224 98.1046 88.1279 100.549 86.9821 102.045C85.8861 103.542 83.4948 106.235 81.7014 107.931C79.9079 109.677 77.0185 112.071 75.225 113.268C73.4316 114.466 70.423 116.173 68.6295 116.971C66.8361 117.769 63.1496 119.153 60.9078 119.703C58.666 120.253 55.6964 120.962 50.067 120.712C45.5336 120.563 42.4449 119.753 39.8543 119.005C37.8118 118.406 34.5238 117.209 32.6307 116.311C30.7377 115.413 27.3998 113.518 25.2577 112.121C23.1653 110.675 19.9272 108.081 18.0341 106.335C16.1908 104.589 13.2516 101.197 11.5578 98.7531C9.81413 96.3089 7.5225 92.5179 6.47633 90.3232C5.43015 88.1284 3.8858 83.8885 3.0389 80.8458C2.19199 77.803 1.14581 73.1142 0.747269 70.3707C0.348725 67.6272 0 61.9907 0 57.9004C0 53.7603 0.24909 48.9717 0.498179 47.176C0.797087 45.3803 1.24545 42.6867 1.59417 41.1902L2.14217 38.4468Z" fill="url(#paint1_linear_210_21)"/>
<path d="M170.871 39.848C173.602 40.488 175.714 41.8107 177.207 43.816C178.743 45.7787 179.511 48.0613 179.511 50.664C179.511 54.632 178.188 57.704 175.543 59.88C172.94 62.0133 169.186 63.08 164.279 63.08H140.535V17.768H163.639C168.247 17.768 171.874 18.7707 174.519 20.776C177.164 22.7813 178.487 25.704 178.487 29.544C178.487 32.1893 177.783 34.4293 176.375 36.264C175.01 38.056 173.175 39.2507 170.871 39.848ZM154.743 35.432H160.247C161.527 35.432 162.466 35.176 163.063 34.664C163.703 34.152 164.023 33.3627 164.023 32.296C164.023 31.1867 163.703 30.376 163.063 29.864C162.466 29.3093 161.527 29.032 160.247 29.032H154.743V35.432ZM161.207 51.688C162.487 51.688 163.426 51.4533 164.023 50.984C164.663 50.472 164.983 49.6613 164.983 48.552C164.983 46.376 163.724 45.288 161.207 45.288H154.743V51.688H161.207Z" fill="#393939"/>
<path d="M206.365 63.528C202.098 63.528 198.173 62.5253 194.589 60.52C191.048 58.5147 188.232 55.7413 186.141 52.2C184.05 48.6587 183.005 44.6693 183.005 40.232C183.005 35.7947 184.05 31.8053 186.141 28.264C188.232 24.7227 191.048 21.9707 194.589 20.008C198.173 18.0027 202.098 17 206.365 17C210.632 17 214.536 18.0027 218.077 20.008C221.618 21.9707 224.413 24.7227 226.461 28.264C228.552 31.8053 229.597 35.7947 229.597 40.232C229.597 44.6693 228.552 48.6587 226.461 52.2C224.413 55.7413 221.597 58.5147 218.013 60.52C214.472 62.5253 210.589 63.528 206.365 63.528ZM206.365 50.28C209.181 50.28 211.357 49.384 212.893 47.592C214.429 45.7573 215.197 43.304 215.197 40.232C215.197 37.1173 214.429 34.664 212.893 32.872C211.357 31.0373 209.181 30.12 206.365 30.12C203.506 30.12 201.309 31.0373 199.773 32.872C198.237 34.664 197.469 37.1173 197.469 40.232C197.469 43.304 198.237 45.7573 199.773 47.592C201.309 49.384 203.506 50.28 206.365 50.28Z" fill="#393939"/>
<path d="M256.803 63.528C252.536 63.528 248.611 62.5253 245.027 60.52C241.485 58.5147 238.669 55.7413 236.579 52.2C234.488 48.6587 233.443 44.6693 233.443 40.232C233.443 35.7947 234.488 31.8053 236.579 28.264C238.669 24.7227 241.485 21.9707 245.027 20.008C248.611 18.0027 252.536 17 256.803 17C261.069 17 264.973 18.0027 268.515 20.008C272.056 21.9707 274.851 24.7227 276.899 28.264C278.989 31.8053 280.035 35.7947 280.035 40.232C280.035 44.6693 278.989 48.6587 276.899 52.2C274.851 55.7413 272.035 58.5147 268.451 60.52C264.909 62.5253 261.027 63.528 256.803 63.528ZM256.803 50.28C259.619 50.28 261.795 49.384 263.331 47.592C264.867 45.7573 265.635 43.304 265.635 40.232C265.635 37.1173 264.867 34.664 263.331 32.872C261.795 31.0373 259.619 30.12 256.803 30.12C253.944 30.12 251.746 31.0373 250.21 32.872C248.674 34.664 247.907 37.1173 247.907 40.232C247.907 43.304 248.674 45.7573 250.21 47.592C251.746 49.384 253.944 50.28 256.803 50.28Z" fill="#393939"/>
<path d="M312.552 63.08L299.368 43.432V63.08H285.16V17.768H299.368V36.84L312.36 17.768H328.424L312.808 39.464L329.448 63.08H312.552Z" fill="#393939"/>
<path d="M143.315 113.405C142.362 113.405 141.56 113.08 140.91 112.43C140.303 111.78 140 110.978 140 110.025C140 109.072 140.303 108.292 140.91 107.685C141.56 107.035 142.362 106.71 143.315 106.71C144.225 106.71 144.983 107.035 145.59 107.685C146.24 108.292 146.565 109.072 146.565 110.025C146.565 110.978 146.24 111.78 145.59 112.43C144.983 113.08 144.225 113.405 143.315 113.405Z" fill="#393939"/>
<path d="M154.862 95.335C154.862 91.6517 155.598 88.445 157.072 85.715C158.545 82.9417 160.582 80.8183 163.182 79.345C165.782 77.8283 168.75 77.07 172.087 77.07C176.463 77.07 180.06 78.1533 182.877 80.32C185.737 82.4867 187.578 85.4333 188.402 89.16H183.527C182.92 86.6033 181.598 84.61 179.562 83.18C177.568 81.7067 175.077 80.97 172.087 80.97C169.703 80.97 167.558 81.5117 165.652 82.595C163.745 83.6783 162.228 85.3033 161.102 87.47C160.018 89.5933 159.477 92.215 159.477 95.335C159.477 98.455 160.018 101.098 161.102 103.265C162.228 105.432 163.745 107.057 165.652 108.14C167.558 109.223 169.703 109.765 172.087 109.765C175.077 109.765 177.568 109.05 179.562 107.62C181.598 106.147 182.92 104.11 183.527 101.51H188.402C187.578 105.15 185.737 108.075 182.877 110.285C180.017 112.495 176.42 113.6 172.087 113.6C168.75 113.6 165.782 112.863 163.182 111.39C160.582 109.873 158.545 107.75 157.072 105.02C155.598 102.247 154.862 99.0183 154.862 95.335Z" fill="#393939"/>
<path d="M197.325 95.27C197.325 91.63 198.04 88.445 199.47 85.715C200.943 82.9417 202.958 80.8183 205.515 79.345C208.115 77.8283 211.04 77.07 214.29 77.07C217.67 77.07 220.573 77.85 223 79.41C225.47 80.97 227.247 82.9633 228.33 85.39V77.59H232.88V113.08H228.33V105.215C227.203 107.642 225.405 109.657 222.935 111.26C220.508 112.82 217.605 113.6 214.225 113.6C211.018 113.6 208.115 112.842 205.515 111.325C202.958 109.808 200.943 107.663 199.47 104.89C198.04 102.117 197.325 98.91 197.325 95.27ZM228.33 95.335C228.33 92.475 227.745 89.9617 226.575 87.795C225.405 85.6283 223.802 83.96 221.765 82.79C219.772 81.62 217.562 81.035 215.135 81.035C212.622 81.035 210.368 81.5983 208.375 82.725C206.382 83.8517 204.8 85.4983 203.63 87.665C202.503 89.7883 201.94 92.3233 201.94 95.27C201.94 98.1733 202.503 100.73 203.63 102.94C204.8 105.107 206.382 106.775 208.375 107.945C210.368 109.072 212.622 109.635 215.135 109.635C217.562 109.635 219.772 109.05 221.765 107.88C223.802 106.71 225.405 105.042 226.575 102.875C227.745 100.708 228.33 98.195 228.33 95.335Z" fill="#393939"/>
<path d="M250.417 83.895C251.414 81.685 252.931 79.9733 254.967 78.76C257.047 77.5467 259.582 76.94 262.572 76.94V81.685H261.337C258.044 81.685 255.401 82.5733 253.407 84.35C251.414 86.1267 250.417 89.095 250.417 93.255V113.08H245.867V77.59H250.417V83.895Z" fill="#393939"/>
<path d="M304.127 93.515C304.127 95.075 304.084 96.2667 303.997 97.09H274.552C274.682 99.7767 275.332 102.073 276.502 103.98C277.672 105.887 279.21 107.338 281.117 108.335C283.024 109.288 285.104 109.765 287.357 109.765C290.304 109.765 292.774 109.05 294.767 107.62C296.804 106.19 298.147 104.262 298.797 101.835H303.607C302.74 105.302 300.877 108.14 298.017 110.35C295.2 112.517 291.647 113.6 287.357 113.6C284.02 113.6 281.03 112.863 278.387 111.39C275.744 109.873 273.664 107.75 272.147 105.02C270.674 102.247 269.937 99.0183 269.937 95.335C269.937 91.6517 270.674 88.4233 272.147 85.65C273.62 82.8767 275.679 80.7533 278.322 79.28C280.965 77.8067 283.977 77.07 287.357 77.07C290.737 77.07 293.684 77.8067 296.197 79.28C298.754 80.7533 300.704 82.7467 302.047 85.26C303.434 87.73 304.127 90.4817 304.127 93.515ZM299.512 93.385C299.555 90.7417 299.014 88.4883 297.887 86.625C296.804 84.7617 295.309 83.3533 293.402 82.4C291.495 81.4467 289.415 80.97 287.162 80.97C283.782 80.97 280.9 82.0533 278.517 84.22C276.134 86.3867 274.812 89.4417 274.552 93.385H299.512Z" fill="#393939"/>
<defs>
<linearGradient id="paint0_linear_210_21" x1="58.536" y1="46.3895" x2="81.5054" y2="121.195" gradientUnits="userSpaceOnUse">
<stop stop-color="#1891FF"/>
<stop offset="1" stop-color="#4AEEF8"/>
</linearGradient>
<linearGradient id="paint1_linear_210_21" x1="1.78169e-06" y1="38.4085" x2="70.0905" y2="114.638" gradientUnits="userSpaceOnUse">
<stop stop-color="#37ECF9"/>
<stop offset="1" stop-color="#1891FF"/>
</linearGradient>
</defs>
</svg>
