<svg width="371" height="149" viewBox="0 0 371 149" fill="none" xmlns="http://www.w3.org/2000/svg">
<path d="M56.1316 0.0470757C59.5057 0.169923 64.4747 0.845586 67.1739 1.58267C69.8731 2.25834 74.9649 4.28532 78.5229 6.00519C84.1054 8.76927 85.7004 9.8749 90.5467 14.7274C93.614 17.7986 96.8654 21.7297 97.7856 23.3882C98.7058 25.108 100.178 28.1178 101.037 30.1448C101.896 32.1718 103.184 36.2872 105.208 44.7022L110.73 46.115C113.736 46.8521 117.784 48.0805 119.625 48.8176C121.465 49.5547 124.778 51.2132 126.986 52.5031C129.195 53.8544 132.691 56.557 134.777 58.6455C136.924 60.7339 139.746 64.1122 141.096 66.262C142.507 68.3504 144.409 72.0359 145.39 74.37C146.31 76.7041 147.599 81.0038 148.212 83.8907C149.01 87.8832 149.132 90.893 148.887 96.4826C148.641 102.134 148.151 105.082 146.924 109.074C146.004 111.961 144.531 115.708 143.734 117.367C142.875 119.087 141.035 122.096 139.562 124.123C138.151 126.15 135.207 129.467 133.06 131.433C130.912 133.398 127.232 136.285 124.839 137.821C122.447 139.356 117.784 141.813 114.41 143.226C111.036 144.7 105.515 146.543 102.141 147.403C98.7671 148.263 95.4544 149 94.7796 149C93.8594 149 95.3931 148.339 98.1536 145.867C100.669 144.086 104.84 140.585 107.356 138.005C109.932 135.425 113.245 131.556 114.717 129.344C116.189 127.133 118.582 122.833 119.993 119.824C121.404 116.814 123.121 111.961 123.858 109.074C124.716 105.635 125.146 101.949 125.146 98.3253C125.146 95.3155 124.778 91.3844 124.348 89.726C123.858 88.0675 122.876 85.3034 122.017 83.645C121.22 81.9865 119.171 79.2982 117.638 77.7012C116.264 76.4257 113.613 74.4314 112.423 73.7087C111.234 72.9859 108.214 71.7902 106.313 71.2374C103.736 70.5003 99.626 70.1317 80.0566 69.886L79.9339 58.8912C79.8725 50.9061 79.5658 46.9749 78.891 44.2723C78.3389 42.2453 77.3573 39.4812 76.6825 38.1299C76.0691 36.7786 74.2287 34.3216 72.5724 32.7246C70.9774 31.1276 68.4622 29.2234 66.9899 28.6092C65.5789 27.9335 63.2478 27.135 61.7755 26.7665C60.3645 26.4593 57.788 26.1522 56.1316 26.1522C54.4139 26.1522 51.408 26.5822 49.3836 27.0736C47.3591 27.6264 44.2305 28.9163 42.3901 30.0219C40.6111 31.1276 37.7892 33.5231 36.1328 35.3658C34.4765 37.2085 32.1453 40.7097 31.0411 43.0438C29.8755 45.3779 28.5259 48.8791 27.9738 50.7218C27.4217 52.5645 26.5628 56.7413 26.0721 59.9354C25.5813 63.1294 25.1519 68.289 25.1519 71.2988C25.2132 74.3085 25.4586 78.9153 25.7653 81.4337C26.1334 83.9521 26.5628 87.0233 27.0536 90.3402L25.8267 88.8046C25.1519 87.9447 23.0661 84.3821 21.2257 80.8195C19.3854 77.2569 16.8702 71.4831 15.7046 67.9205C14.539 64.3579 13.1281 58.8297 12.576 55.6357C12.0852 52.4416 11.6558 47.712 11.6558 45.1936C11.6558 42.6753 12.0238 38.2527 12.576 35.3658C13.0667 32.4789 14.171 28.3635 15.0911 26.1522C15.95 23.941 17.6063 20.6241 18.7106 18.7814C19.8148 16.9386 22.858 13.2061 24.9065 11.4105C27.2377 9.19923 30.673 6.49659 32.5134 5.45238C34.3538 4.40817 37.6051 2.934 39.6909 2.25833C41.838 1.52125 45.028 0.722738 46.7457 0.354195C48.5247 0.0470757 52.7576 -0.0757721 56.1316 0.0470757Z" fill="url(#paint0_linear_15_39)"/>
<path d="M2.63788 47.3435L4.04884 55.6357C4.78499 60.1811 6.31864 66.5692 7.42287 69.7632C8.46575 72.9573 10.3061 77.6869 11.4717 80.2053C12.6373 82.7237 14.6004 86.4705 15.8273 88.4975C16.9928 90.5245 19.5694 94.2714 21.5325 96.7897C23.4342 99.3081 27.1763 103.485 29.8142 106.003C32.5134 108.583 36.4395 111.9 38.648 113.374C40.8564 114.848 44.9666 117.182 47.8499 118.472C50.7332 119.824 55.7022 121.605 58.8922 122.404C62.0822 123.202 67.91 124.123 71.7748 124.492C75.6396 124.799 81.0381 124.922 83.7373 124.676C86.4365 124.492 91.1602 123.755 94.1661 123.141C97.1721 122.526 101.221 121.359 103.061 120.622C104.902 119.885 107.724 118.472 109.38 117.551C110.975 116.63 112.386 115.831 112.57 115.831C112.754 115.831 112.141 117.305 111.282 119.087C110.361 120.806 108.521 123.816 107.11 125.659C105.761 127.502 102.816 130.819 100.607 132.907C98.399 135.057 94.8409 138.005 92.6325 139.479C90.424 140.954 86.7192 143.056 84.5107 144.039C82.3023 145.022 77.7627 146.726 75.0021 147.403C72.2415 148.08 68.5848 148.953 61.6527 148.646C56.0703 148.462 52.2668 147.464 49.0768 146.543C46.5616 145.806 42.5128 144.332 40.1816 143.226C37.8505 142.121 33.7403 139.786 31.1024 138.067C28.5259 136.285 24.5384 133.091 22.2073 130.941C19.9375 128.792 16.318 124.615 14.2323 121.605C12.0852 118.595 9.26325 113.927 7.97498 111.224C6.68672 108.522 4.78499 103.301 3.74211 99.5538C2.69923 95.807 1.41096 90.0331 0.92019 86.6548C0.429422 83.2765 0 76.3356 0 71.2988C0 66.2006 0.30673 60.3039 0.61346 58.0927C0.981536 55.8814 1.53365 52.5645 1.96307 50.7218L2.63788 47.3435Z" fill="url(#paint1_linear_15_39)"/>
<path d="M211.536 59.768C214.267 60.408 216.379 61.7307 217.872 63.736C219.408 65.6987 220.176 67.9813 220.176 70.584C220.176 74.552 218.853 77.624 216.208 79.8C213.605 81.9333 209.851 83 204.944 83H181.2V37.688H204.304C208.912 37.688 212.539 38.6907 215.184 40.696C217.829 42.7013 219.152 45.624 219.152 49.464C219.152 52.1093 218.448 54.3493 217.04 56.184C215.675 57.976 213.84 59.1707 211.536 59.768ZM195.408 55.352H200.912C202.192 55.352 203.131 55.096 203.728 54.584C204.368 54.072 204.688 53.2827 204.688 52.216C204.688 51.1067 204.368 50.296 203.728 49.784C203.131 49.2293 202.192 48.952 200.912 48.952H195.408V55.352ZM201.872 71.608C203.152 71.608 204.091 71.3733 204.688 70.904C205.328 70.392 205.648 69.5813 205.648 68.472C205.648 66.296 204.389 65.208 201.872 65.208H195.408V71.608H201.872ZM247.03 83.448C242.763 83.448 238.838 82.4453 235.254 80.44C231.713 78.4347 228.897 75.6613 226.806 72.12C224.715 68.5787 223.67 64.5893 223.67 60.152C223.67 55.7147 224.715 51.7253 226.806 48.184C228.897 44.6427 231.713 41.8907 235.254 39.928C238.838 37.9227 242.763 36.92 247.03 36.92C251.297 36.92 255.201 37.9227 258.742 39.928C262.283 41.8907 265.078 44.6427 267.126 48.184C269.217 51.7253 270.262 55.7147 270.262 60.152C270.262 64.5893 269.217 68.5787 267.126 72.12C265.078 75.6613 262.262 78.4347 258.678 80.44C255.137 82.4453 251.254 83.448 247.03 83.448ZM247.03 70.2C249.846 70.2 252.022 69.304 253.558 67.512C255.094 65.6773 255.862 63.224 255.862 60.152C255.862 57.0373 255.094 54.584 253.558 52.792C252.022 50.9573 249.846 50.04 247.03 50.04C244.171 50.04 241.974 50.9573 240.438 52.792C238.902 54.584 238.134 57.0373 238.134 60.152C238.134 63.224 238.902 65.6773 240.438 67.512C241.974 69.304 244.171 70.2 247.03 70.2ZM297.468 83.448C293.201 83.448 289.276 82.4453 285.692 80.44C282.15 78.4347 279.334 75.6613 277.244 72.12C275.153 68.5787 274.108 64.5893 274.108 60.152C274.108 55.7147 275.153 51.7253 277.244 48.184C279.334 44.6427 282.15 41.8907 285.692 39.928C289.276 37.9227 293.201 36.92 297.468 36.92C301.734 36.92 305.638 37.9227 309.18 39.928C312.721 41.8907 315.516 44.6427 317.564 48.184C319.654 51.7253 320.7 55.7147 320.7 60.152C320.7 64.5893 319.654 68.5787 317.564 72.12C315.516 75.6613 312.7 78.4347 309.116 80.44C305.574 82.4453 301.692 83.448 297.468 83.448ZM297.468 70.2C300.284 70.2 302.46 69.304 303.996 67.512C305.532 65.6773 306.3 63.224 306.3 60.152C306.3 57.0373 305.532 54.584 303.996 52.792C302.46 50.9573 300.284 50.04 297.468 50.04C294.609 50.04 292.412 50.9573 290.876 52.792C289.34 54.584 288.572 57.0373 288.572 60.152C288.572 63.224 289.34 65.6773 290.876 67.512C292.412 69.304 294.609 70.2 297.468 70.2ZM353.217 83L340.033 63.352V83H325.825V37.688H340.033V56.76L353.025 37.688H369.089L353.473 59.384L370.113 83H353.217Z" fill="#FEFEFE"/>
<path d="M183.98 141.325C183.027 141.325 182.225 141 181.575 140.35C180.968 139.7 180.665 138.898 180.665 137.945C180.665 136.992 180.968 136.212 181.575 135.605C182.225 134.955 183.027 134.63 183.98 134.63C184.89 134.63 185.648 134.955 186.255 135.605C186.905 136.212 187.23 136.992 187.23 137.945C187.23 138.898 186.905 139.7 186.255 140.35C185.648 141 184.89 141.325 183.98 141.325ZM195.527 123.255C195.527 119.572 196.263 116.365 197.737 113.635C199.21 110.862 201.247 108.738 203.847 107.265C206.447 105.748 209.415 104.99 212.752 104.99C217.128 104.99 220.725 106.073 223.542 108.24C226.402 110.407 228.243 113.353 229.067 117.08H224.192C223.585 114.523 222.263 112.53 220.227 111.1C218.233 109.627 215.742 108.89 212.752 108.89C210.368 108.89 208.223 109.432 206.317 110.515C204.41 111.598 202.893 113.223 201.767 115.39C200.683 117.513 200.142 120.135 200.142 123.255C200.142 126.375 200.683 129.018 201.767 131.185C202.893 133.352 204.41 134.977 206.317 136.06C208.223 137.143 210.368 137.685 212.752 137.685C215.742 137.685 218.233 136.97 220.227 135.54C222.263 134.067 223.585 132.03 224.192 129.43H229.067C228.243 133.07 226.402 135.995 223.542 138.205C220.682 140.415 217.085 141.52 212.752 141.52C209.415 141.52 206.447 140.783 203.847 139.31C201.247 137.793 199.21 135.67 197.737 132.94C196.263 130.167 195.527 126.938 195.527 123.255ZM237.99 123.19C237.99 119.55 238.705 116.365 240.135 113.635C241.608 110.862 243.623 108.738 246.18 107.265C248.78 105.748 251.705 104.99 254.955 104.99C258.335 104.99 261.238 105.77 263.665 107.33C266.135 108.89 267.912 110.883 268.995 113.31V105.51H273.545V141H268.995V133.135C267.868 135.562 266.07 137.577 263.6 139.18C261.173 140.74 258.27 141.52 254.89 141.52C251.683 141.52 248.78 140.762 246.18 139.245C243.623 137.728 241.608 135.583 240.135 132.81C238.705 130.037 237.99 126.83 237.99 123.19ZM268.995 123.255C268.995 120.395 268.41 117.882 267.24 115.715C266.07 113.548 264.467 111.88 262.43 110.71C260.437 109.54 258.227 108.955 255.8 108.955C253.287 108.955 251.033 109.518 249.04 110.645C247.047 111.772 245.465 113.418 244.295 115.585C243.168 117.708 242.605 120.243 242.605 123.19C242.605 126.093 243.168 128.65 244.295 130.86C245.465 133.027 247.047 134.695 249.04 135.865C251.033 136.992 253.287 137.555 255.8 137.555C258.227 137.555 260.437 136.97 262.43 135.8C264.467 134.63 266.07 132.962 267.24 130.795C268.41 128.628 268.995 126.115 268.995 123.255ZM291.082 111.815C292.079 109.605 293.596 107.893 295.632 106.68C297.712 105.467 300.247 104.86 303.237 104.86V109.605H302.002C298.709 109.605 296.066 110.493 294.072 112.27C292.079 114.047 291.082 117.015 291.082 121.175V141H286.532V105.51H291.082V111.815ZM344.792 121.435C344.792 122.995 344.749 124.187 344.662 125.01H315.217C315.347 127.697 315.997 129.993 317.167 131.9C318.337 133.807 319.875 135.258 321.782 136.255C323.689 137.208 325.769 137.685 328.022 137.685C330.969 137.685 333.439 136.97 335.432 135.54C337.469 134.11 338.812 132.182 339.462 129.755H344.272C343.405 133.222 341.542 136.06 338.682 138.27C335.865 140.437 332.312 141.52 328.022 141.52C324.685 141.52 321.695 140.783 319.052 139.31C316.409 137.793 314.329 135.67 312.812 132.94C311.339 130.167 310.602 126.938 310.602 123.255C310.602 119.572 311.339 116.343 312.812 113.57C314.285 110.797 316.344 108.673 318.987 107.2C321.63 105.727 324.642 104.99 328.022 104.99C331.402 104.99 334.349 105.727 336.862 107.2C339.419 108.673 341.369 110.667 342.712 113.18C344.099 115.65 344.792 118.402 344.792 121.435ZM340.177 121.305C340.22 118.662 339.679 116.408 338.552 114.545C337.469 112.682 335.974 111.273 334.067 110.32C332.16 109.367 330.08 108.89 327.827 108.89C324.447 108.89 321.565 109.973 319.182 112.14C316.799 114.307 315.477 117.362 315.217 121.305H340.177Z" fill="#F9F9F9"/>
<defs>
<linearGradient id="paint0_linear_15_39" x1="80" y1="71" x2="101.003" y2="142.477" gradientUnits="userSpaceOnUse">
<stop stop-color="white"/>
<stop offset="1" stop-color="#C4C4C4"/>
</linearGradient>
<linearGradient id="paint1_linear_15_39" x1="2.14711" y1="44.8294" x2="56.2807" y2="97.9178" gradientUnits="userSpaceOnUse">
<stop stop-color="#C6C6C6"/>
<stop offset="1" stop-color="white"/>
</linearGradient>
</defs>
</svg>
